<svg xmlns="http://www.w3.org/2000/svg" width="900.8" height="789.87" viewBox="0 0 238.337 208.986"><g transform="translate(0 -88.014)"><path d="M228.707 287.37H9.63L119.168 97.642Z" style="opacity:1;fill:#fff;fill-opacity:1;stroke:#f0141e;stroke-width:19.04999924;stroke-linecap:butt;stroke-linejoin:round;stroke-miterlimit:4;stroke-dasharray:none;stroke-dashoffset:0;stroke-opacity:1"/><circle cx="119.168" cy="242.655" r="29.66" style="fill:#fff;stroke:#000020;stroke-width:1.53455937;stroke-miterlimit:4;stroke-dasharray:none;stroke-opacity:1"/><path d="M79.695 268.749c0 1.639.83 2.967 1.855 2.967 1.024 0 1.854-1.328 1.854-2.967v-32.766c2.05 0 3.71-3.132 3.71-6.41V201.08c0-.983-.499-1.78-1.112-1.78-.615 0-1.113.797-1.113 1.78v28.492c0 .983-.498 1.78-1.113 1.78s-1.113-.797-1.113-1.78V201.08c0-.983-.499-1.78-1.112-1.78-.615 0-1.113.797-1.113 1.78v28.492c0 .983-.498 1.78-1.113 1.78s-1.113-.797-1.113-1.78V201.08c0-.983-.499-1.78-1.112-1.78-.615 0-1.113.797-1.113 1.78v28.492c0 3.278 1.66 6.41 3.71 6.41z" style="fill:none;stroke:#000014;stroke-width:.9497177;stroke-miterlimit:4;stroke-dasharray:none;stroke-opacity:1"/><path d="M158.343 268.749c0 1.639.83 2.967 1.855 2.967 1.024 0 1.855-1.328 1.855-2.967v-66.48c0-5.936-11.872-8.31-8.904 40.362h5.194z" style="fill:none;stroke:#000014;stroke-width:1.54329097;stroke-miterlimit:4;stroke-dasharray:none;stroke-opacity:1"/><circle cx="119.168" cy="242.655" r="19.301" style="fill:#b3b3b3;stroke:#000014;stroke-width:1.40231669;stroke-miterlimit:4;stroke-dasharray:none;stroke-opacity:1"/><path d="m117.947 186.298-3.752-27.714a16.121 16.121 0 0 1-.274-1.732c-.029-.59-.044-1.178-.044-1.768 0-1.554.436-2.733 1.312-3.533.903-.824 2.2-1.236 3.89-1.236.03 0 .06 0 .09.003.03 0 .059-.003.089-.003 1.69 0 2.986.412 3.89 1.236.875.8 1.312 1.979 1.312 3.533 0 .59-.016 1.179-.045 1.768-.06.59-.152 1.167-.273 1.732l-3.753 27.714z" style="fill:#f0141e;fill-opacity:1;stroke:none;stroke-width:2.24031973"/><circle cx="119.168" cy="194.765" r="4.233" style="fill:#f0141e;fill-opacity:1;stroke:none;stroke-width:.4779045;stroke-miterlimit:4;stroke-dasharray:none;stroke-opacity:1"/></g></svg>